<svg width="45" height="28" viewBox="0 0 45 28" fill="none" xmlns="http://www.w3.org/2000/svg">
<path d="M41.4474 23.0588C42.3597 23.0591 43.2369 23.3035 43.8972 23.7414C44.5575 24.1792 44.9503 24.7769 44.9941 25.4107C45.038 26.0444 44.7295 26.6656 44.1327 27.1455C43.5359 27.6254 42.6965 27.9272 41.7884 27.9885L41.4474 28H3.55263C2.64028 27.9997 1.76307 27.7553 1.10277 27.3174C0.442472 26.8796 0.0497084 26.2819 0.00586359 25.6481C-0.0379812 25.0144 0.270454 24.3932 0.867258 23.9133C1.46406 23.4334 2.30348 23.1316 3.21158 23.0704L3.55263 23.0588H41.4474ZM41.4474 11.5294C42.3896 11.5294 43.2932 11.7897 43.9595 12.253C44.6257 12.7164 45 13.3448 45 14C45 14.6552 44.6257 15.2836 43.9595 15.747C43.2932 16.2103 42.3896 16.4706 41.4474 16.4706H3.55263C2.61042 16.4706 1.70679 16.2103 1.04054 15.747C0.374294 15.2836 0 14.6552 0 14C0 13.3448 0.374294 12.7164 1.04054 12.253C1.70679 11.7897 2.61042 11.5294 3.55263 11.5294H41.4474ZM41.4474 0C42.3896 0 43.2932 0.260293 43.9595 0.723619C44.6257 1.18694 45 1.81535 45 2.47059C45 3.12583 44.6257 3.75423 43.9595 4.21756C43.2932 4.68088 42.3896 4.94118 41.4474 4.94118H3.55263C2.61042 4.94118 1.70679 4.68088 1.04054 4.21756C0.374294 3.75423 0 3.12583 0 2.47059C0 1.81535 0.374294 1.18694 1.04054 0.723619C1.70679 0.260293 2.61042 0 3.55263 0H41.4474Z" fill="url(#paint0_linear_109_1436)"/>
<defs>
<linearGradient id="paint0_linear_109_1436" x1="22.5" y1="0" x2="22.5" y2="28" gradientUnits="userSpaceOnUse">
<stop stop-color="#F8605E"/>
<stop offset="1" stop-color="#FF9921"/>
</linearGradient>
</defs>
</svg>
