<svg width="98" height="85" viewBox="0 0 98 85" fill="none" xmlns="http://www.w3.org/2000/svg">
<path d="M70.6892 0C61.3525 0 53.3744 6.60649 48.9911 11.1612C44.6078 6.60649 36.6475 0 27.3153 0C11.2299 0 0 11.1302 0 27.0627C0 44.6181 13.9472 55.965 27.44 66.9405C33.81 72.1275 40.4027 77.487 45.4586 83.4302C46.3095 84.4251 47.5567 85 48.8664 85H49.1247C50.4388 85 51.6816 84.4207 52.528 83.4302C57.5928 77.487 64.1811 72.1231 70.5555 66.9405C84.0439 55.9695 98 44.6226 98 27.0627C98 11.1302 86.7701 0 70.6892 0Z" fill="url(#paint0_linear_321_850)"/>
<defs>
<linearGradient id="paint0_linear_321_850" x1="49" y1="0" x2="49" y2="85" gradientUnits="userSpaceOnUse">
<stop stop-color="#F8605E"/>
<stop offset="1" stop-color="#F8A401"/>
</linearGradient>
</defs>
</svg>
