<svg width="72" height="72" viewBox="0 0 72 72" fill="none" xmlns="http://www.w3.org/2000/svg">
<path opacity="0.9" fill-rule="evenodd" clip-rule="evenodd" d="M36 72C40.7276 72 45.4089 71.0688 49.7766 69.2597C54.1443 67.4505 58.1129 64.7988 61.4558 61.4558C64.7988 58.1129 67.4505 54.1443 69.2597 49.7766C71.0688 45.4089 72 40.7276 72 36C72 31.2724 71.0688 26.5911 69.2597 22.2234C67.4505 17.8557 64.7988 13.8871 61.4558 10.5442C58.1129 7.20125 54.1443 4.54951 49.7766 2.74034C45.4089 0.931167 40.7276 -7.04465e-08 36 0C26.4522 1.42273e-07 17.2955 3.79285 10.5442 10.5442C3.79285 17.2955 0 26.4522 0 36C0 45.5478 3.79285 54.7045 10.5442 61.4558C17.2955 68.2072 26.4522 72 36 72ZM31.132 19.96L53.708 32.504C54.3313 32.8505 54.8506 33.3574 55.2121 33.972C55.5737 34.5867 55.7643 35.2869 55.7643 36C55.7643 36.7131 55.5737 37.4133 55.2121 38.028C54.8506 38.6426 54.3313 39.1495 53.708 39.496L31.132 52.04C30.401 52.4463 29.5765 52.6546 28.7402 52.6442C27.904 52.6338 27.0849 52.405 26.3643 51.9806C25.6436 51.5563 25.0463 50.9509 24.6316 50.2246C24.2169 49.4984 23.9992 48.6763 24 47.84V24.16C23.9992 23.3237 24.2169 22.5016 24.6316 21.7754C25.0463 21.0491 25.6436 20.4437 26.3643 20.0194C27.0849 19.595 27.904 19.3662 28.7402 19.3558C29.5765 19.3454 30.401 19.5537 31.132 19.96Z" fill="white"/>
</svg>
