<svg width="79" height="79" viewBox="0 0 79 79" fill="none" xmlns="http://www.w3.org/2000/svg">
<path d="M0 79V7.9C0 5.7275 0.7742 3.86837 2.3226 2.3226C3.871 0.776834 5.73013 0.00263333 7.9 0H71.1C73.2725 0 75.1329 0.7742 76.6813 2.3226C78.2297 3.871 79.0026 5.73013 79 7.9V55.3C79 57.4725 78.2271 59.333 76.6813 60.8814C75.1356 62.4298 73.2751 63.2026 71.1 63.2H15.8L0 79ZM27.9462 48.3875L39.5 41.3763L51.0537 48.3875L47.9925 35.2537L58.2625 26.3663L44.7337 25.28L39.5 12.8375L34.2662 25.28L20.7375 26.3663L31.0075 35.2537L27.9462 48.3875Z" fill="url(#paint0_linear_321_847)"/>
<defs>
<linearGradient id="paint0_linear_321_847" x1="39.5" y1="0" x2="39.5" y2="79" gradientUnits="userSpaceOnUse">
<stop stop-color="#F8605E"/>
<stop offset="1" stop-color="#F8A401"/>
</linearGradient>
</defs>
</svg>
