<svg width="40" height="40" viewBox="0 0 40 40" fill="none" xmlns="http://www.w3.org/2000/svg">
<path d="M38 38L29.3141 29.3141M29.3141 29.3141C30.7999 27.8283 31.9784 26.0645 32.7825 24.1233C33.5866 22.182 34.0005 20.1014 34.0005 18.0002C34.0005 15.899 33.5866 13.8184 32.7825 11.8772C31.9784 9.93597 30.7999 8.17212 29.3141 6.68636C27.8283 5.2006 26.0645 4.02203 24.1233 3.21794C22.182 2.41386 20.1014 2 18.0002 2C15.899 2 13.8184 2.41386 11.8772 3.21794C9.93597 4.02203 8.17212 5.2006 6.68636 6.68636C3.68573 9.68698 2 13.7567 2 18.0002C2 22.2438 3.68573 26.3135 6.68636 29.3141C9.68698 32.3147 13.7567 34.0005 18.0002 34.0005C22.2438 34.0005 26.3135 32.3147 29.3141 29.3141Z" stroke="white" stroke-width="2.5" stroke-linecap="round" stroke-linejoin="round"/>
</svg>
