<svg width="25" height="30" viewBox="0 0 25 30" fill="none" xmlns="http://www.w3.org/2000/svg">
<path fill-rule="evenodd" clip-rule="evenodd" d="M15.1515 4.83752C15.1515 2.16695 17.3574 1.39359e-05 20.075 1.39359e-05C20.7202 -0.00151269 21.3594 0.122402 21.9561 0.364684C22.5528 0.606965 23.0953 0.962868 23.5526 1.41207C24.01 1.86128 24.3732 2.39498 24.6215 2.98272C24.8698 3.57046 24.9985 4.20072 25 4.83752C25 7.50954 22.7941 9.67647 20.075 9.67647C19.4229 9.67726 18.7772 9.55013 18.1753 9.30246C17.5735 9.0548 17.0275 8.69153 16.5691 8.23378L9.75294 12.8144C9.94277 13.7476 9.84968 14.7154 9.48529 15.5967L16.9588 20.4444C17.8391 19.7359 18.9406 19.3497 20.0765 19.3515C20.7217 19.3501 21.3609 19.4742 21.9575 19.7167C22.5541 19.9592 23.0965 20.3152 23.5537 20.7646C24.0109 21.2139 24.3739 21.7477 24.6221 22.3355C24.8702 22.9233 24.9986 23.5536 25 24.1904C25 26.861 22.7941 29.0279 20.075 29.0279C18.7722 29.0306 17.5216 28.5225 16.5983 27.6154C15.675 26.7082 15.1546 25.4762 15.1515 24.1904C15.1503 23.5121 15.2952 22.8413 15.5765 22.2223L8.16177 17.4168C7.26384 18.1873 6.11342 18.6107 4.92353 18.6084C4.27826 18.6099 3.63901 18.4859 3.0423 18.2435C2.4456 18.0011 1.90313 17.6451 1.4459 17.1957C0.988669 16.7463 0.625634 16.2124 0.377541 15.6245C0.129448 15.0366 0.00115732 14.4063 0 13.7694C0.00135025 13.1327 0.129783 12.5025 0.377963 11.9147C0.626143 11.327 0.989207 10.7933 1.44642 10.3441C1.90363 9.89483 2.44603 9.5389 3.04264 9.2966C3.63925 9.05431 4.27838 8.93038 4.92353 8.93191C6.48824 8.93191 7.87941 9.64744 8.78088 10.7621L15.3882 6.3223C15.231 5.84266 15.1511 5.34162 15.1515 4.83752Z" fill="white"/>
</svg>
